<svg id="Layer_1" data-name="Layer 1" xmlns="http://www.w3.org/2000/svg" viewBox="0 0 16 16"><defs><style>.cls-1{fill:#6d2a7d;}.cls-2{fill:#fff;}</style></defs><title>white-on-purple</title><rect class="cls-1" width="16" height="16"/><rect class="cls-2" x="8" y="10.5" width="6" height="1"/><polygon class="cls-2" points="8 8 8 8.5 7.5 8.5 7.5 9 7 9 7 9.5 6.5 9.5 6.5 10 6 10 6 10.5 5.5 10.5 5.5 11 5 11 5 11.5 2.5 11.5 2.5 11 3 11 3 10.5 3.5 10.5 3.5 10 4 10 4 9.5 4.5 9.5 4.5 9 5 9 5 8.5 5.5 8.5 5.5 8 5 8 5 7.5 4.5 7.5 4.5 7 4 7 4 6.5 3.5 6.5 3.5 6 3 6 3 5.5 2.5 5.5 2.5 5 5 5 5 5.5 5.5 5.5 5.5 6 6 6 6 6.5 6.5 6.5 6.5 7 7 7 7 7.5 7.5 7.5 7.5 8 8 8"/></svg>